<svg width="20" height="20" viewBox="0 0 20 20" fill="none" xmlns="http://www.w3.org/2000/svg">
<g clip-path="url(#clip0_88_59)">
<path d="M3.38427 19.2141L9.65409 4.43419C9.68879 4.353 9.73911 4.28547 9.79991 4.23849C9.86071 4.1915 9.92983 4.16675 10.0002 4.16675C10.0706 4.16675 10.1397 4.1915 10.2005 4.23849C10.2613 4.28547 10.3116 4.353 10.3463 4.43419L16.6161 19.2141C16.656 19.3088 16.6729 19.4176 16.6645 19.5255C16.656 19.6335 16.6227 19.7353 16.569 19.8172C16.5154 19.8991 16.4439 19.9571 16.3645 19.9832C16.2851 20.0093 16.2015 20.0024 16.1252 19.9632L10.1442 16.8802C10.0516 16.8325 9.94883 16.8325 9.85619 16.8802L3.87519 19.9643C3.79878 20.0036 3.71505 20.0107 3.63547 19.9846C3.55589 19.9585 3.48435 19.9004 3.43061 19.8183C3.37688 19.7362 3.34359 19.6341 3.33529 19.5259C3.327 19.4178 3.3441 19.3089 3.38427 19.2141V19.2141Z" stroke="black" stroke-width="1.5" stroke-linecap="round" stroke-linejoin="round"/>
</g>
<defs>
<clipPath id="clip0_88_59">
<rect width="20" height="20" fill="white"/>
</clipPath>
</defs>
</svg>
