<svg width="23" height="19" viewBox="0 0 23 19" fill="none" xmlns="http://www.w3.org/2000/svg">
<path d="M11.195 4.92011L3.83295 10.9836V17.5278C3.83295 17.6972 3.90027 17.8597 4.02008 17.9796C4.1399 18.0994 4.3024 18.1667 4.47184 18.1667L8.94646 18.1551C9.11535 18.1543 9.27704 18.0866 9.39616 17.9668C9.51528 17.8471 9.58216 17.6851 9.58216 17.5162V13.6945C9.58216 13.525 9.64947 13.3625 9.76928 13.2427C9.8891 13.1229 10.0516 13.0556 10.221 13.0556H12.7766C12.946 13.0556 13.1085 13.1229 13.2284 13.2427C13.3482 13.3625 13.4155 13.525 13.4155 13.6945V17.5134C13.4152 17.5975 13.4316 17.6808 13.4635 17.7585C13.4955 17.8363 13.5426 17.9069 13.6019 17.9665C13.6613 18.026 13.7318 18.0732 13.8094 18.1055C13.8871 18.1377 13.9703 18.1543 14.0544 18.1543L18.5274 18.1667C18.6968 18.1667 18.8593 18.0994 18.9792 17.9796C19.099 17.8597 19.1663 17.6972 19.1663 17.5278V10.9792L11.8059 4.92011C11.7194 4.85037 11.6116 4.81233 11.5004 4.81233C11.3893 4.81233 11.2815 4.85037 11.195 4.92011V4.92011ZM22.8239 9.04135L19.4857 6.28973V0.758952C19.4857 0.631869 19.4352 0.509991 19.3454 0.42013C19.2555 0.330269 19.1336 0.279785 19.0066 0.279785H16.7705C16.6434 0.279785 16.5215 0.330269 16.4316 0.42013C16.3418 0.509991 16.2913 0.631869 16.2913 0.758952V3.65831L12.7163 0.717025C12.3732 0.434707 11.9427 0.28035 11.4984 0.28035C11.0541 0.28035 10.6236 0.434707 10.2805 0.717025L0.17292 9.04135C0.1244 9.08145 0.0842568 9.13072 0.0547848 9.18635C0.0253129 9.24197 0.00708971 9.30286 0.00115659 9.36552C-0.00477653 9.42819 0.00169665 9.49142 0.0202063 9.55158C0.0387159 9.61175 0.0688992 9.66768 0.109032 9.71617L1.12726 10.954C1.16728 11.0027 1.21651 11.043 1.27213 11.0726C1.32774 11.1022 1.38865 11.1206 1.45137 11.1266C1.51409 11.1327 1.57739 11.1263 1.63764 11.1078C1.69789 11.0894 1.7539 11.0592 1.80249 11.0191L11.195 3.28296C11.2815 3.21321 11.3893 3.17518 11.5004 3.17518C11.6116 3.17518 11.7194 3.21321 11.8059 3.28296L21.1988 11.0191C21.2473 11.0592 21.3032 11.0894 21.3633 11.1079C21.4235 11.1264 21.4867 11.1329 21.5494 11.127C21.6121 11.1211 21.673 11.1028 21.7286 11.0734C21.7842 11.0439 21.8335 11.0037 21.8736 10.9552L22.8918 9.71737C22.9319 9.6686 22.962 9.61238 22.9802 9.55195C22.9985 9.49152 23.0047 9.42807 22.9984 9.36525C22.9921 9.30243 22.9734 9.24147 22.9435 9.18589C22.9135 9.1303 22.8729 9.08118 22.8239 9.04135V9.04135Z" fill="#F8F8F8"/>
</svg>
