<svg width="19" height="19" viewBox="0 0 19 19" fill="none" xmlns="http://www.w3.org/2000/svg">
<path d="M0 2.375C0 1.74511 0.250223 1.14102 0.695621 0.695621C1.14102 0.250223 1.74511 0 2.375 0L16.625 0C17.2549 0 17.859 0.250223 18.3044 0.695621C18.7498 1.14102 19 1.74511 19 2.375V16.625C19 17.2549 18.7498 17.859 18.3044 18.3044C17.859 18.7498 17.2549 19 16.625 19H2.375C1.74511 19 1.14102 18.7498 0.695621 18.3044C0.250223 17.859 0 17.2549 0 16.625V2.375ZM17.8125 4.75H13.0625V8.3125H17.8125V4.75ZM17.8125 9.5H13.0625V13.0625H17.8125V9.5ZM17.8125 14.25H13.0625V17.8125H16.625C16.9399 17.8125 17.242 17.6874 17.4647 17.4647C17.6874 17.242 17.8125 16.9399 17.8125 16.625V14.25ZM11.875 17.8125V14.25H7.125V17.8125H11.875ZM5.9375 17.8125V14.25H1.1875V16.625C1.1875 16.9399 1.31261 17.242 1.53531 17.4647C1.75801 17.6874 2.06006 17.8125 2.375 17.8125H5.9375ZM1.1875 13.0625H5.9375V9.5H1.1875V13.0625ZM1.1875 8.3125H5.9375V4.75H1.1875V8.3125ZM7.125 4.75V8.3125H11.875V4.75H7.125ZM11.875 9.5H7.125V13.0625H11.875V9.5Z" fill="#F8F8F8"/>
</svg>
