<svg width="18" height="19" viewBox="0 0 18 19" fill="none" xmlns="http://www.w3.org/2000/svg">
<path d="M1.66667 10.4583H7.16667C7.40978 10.4583 7.64294 10.3574 7.81485 10.1776C7.98676 9.99792 8.08333 9.75417 8.08333 9.5V1.83333C8.08333 1.57917 7.98676 1.33541 7.81485 1.15569C7.64294 0.975967 7.40978 0.875 7.16667 0.875H1.66667C1.42355 0.875 1.19039 0.975967 1.01849 1.15569C0.846577 1.33541 0.75 1.57917 0.75 1.83333V9.5C0.75 9.75417 0.846577 9.99792 1.01849 10.1776C1.19039 10.3574 1.42355 10.4583 1.66667 10.4583ZM0.75 17.1667C0.75 17.4208 0.846577 17.6646 1.01849 17.8443C1.19039 18.024 1.42355 18.125 1.66667 18.125H7.16667C7.40978 18.125 7.64294 18.024 7.81485 17.8443C7.98676 17.6646 8.08333 17.4208 8.08333 17.1667V13.3333C8.08333 13.0792 7.98676 12.8354 7.81485 12.6557C7.64294 12.476 7.40978 12.375 7.16667 12.375H1.66667C1.42355 12.375 1.19039 12.476 1.01849 12.6557C0.846577 12.8354 0.75 13.0792 0.75 13.3333V17.1667ZM9.91667 17.1667C9.91667 17.4208 10.0132 17.6646 10.1852 17.8443C10.3571 18.024 10.5902 18.125 10.8333 18.125H16.3333C16.5764 18.125 16.8096 18.024 16.9815 17.8443C17.1534 17.6646 17.25 17.4208 17.25 17.1667V10.4583C17.25 10.2042 17.1534 9.96041 16.9815 9.78069C16.8096 9.60097 16.5764 9.5 16.3333 9.5H10.8333C10.5902 9.5 10.3571 9.60097 10.1852 9.78069C10.0132 9.96041 9.91667 10.2042 9.91667 10.4583V17.1667ZM10.8333 7.58333H16.3333C16.5764 7.58333 16.8096 7.48237 16.9815 7.30264C17.1534 7.12292 17.25 6.87917 17.25 6.625V1.83333C17.25 1.57917 17.1534 1.33541 16.9815 1.15569C16.8096 0.975967 16.5764 0.875 16.3333 0.875H10.8333C10.5902 0.875 10.3571 0.975967 10.1852 1.15569C10.0132 1.33541 9.91667 1.57917 9.91667 1.83333V6.625C9.91667 6.87917 10.0132 7.12292 10.1852 7.30264C10.3571 7.48237 10.5902 7.58333 10.8333 7.58333Z" fill="#F8F8F8"/>
</svg>
