<svg width="32" height="32" viewBox="0 0 32 32" fill="none" xmlns="http://www.w3.org/2000/svg">
<path d="M10.7032 25.1226C10.7032 25.2516 10.5548 25.3548 10.3677 25.3548C10.1548 25.3742 10.0065 25.271 10.0065 25.1226C10.0065 24.9935 10.1548 24.8903 10.3419 24.8903C10.5355 24.871 10.7032 24.9742 10.7032 25.1226ZM8.69677 24.8323C8.65161 24.9613 8.78065 25.1097 8.97419 25.1484C9.14194 25.2129 9.33548 25.1484 9.37419 25.0194C9.4129 24.8903 9.29032 24.7419 9.09677 24.6839C8.92903 24.6387 8.74194 24.7032 8.69677 24.8323ZM11.5484 24.7226C11.3613 24.7677 11.2323 24.8903 11.2516 25.0387C11.271 25.1677 11.4387 25.2516 11.6323 25.2065C11.8194 25.1613 11.9484 25.0387 11.929 24.9097C11.9097 24.7871 11.7355 24.7032 11.5484 24.7226ZM15.7935 0C6.84516 0 0 6.79355 0 15.7419C0 22.8968 4.50323 29.0194 10.9355 31.1742C11.7613 31.3226 12.0516 30.8129 12.0516 30.3935C12.0516 29.9935 12.0323 27.7871 12.0323 26.4323C12.0323 26.4323 7.51613 27.4 6.56774 24.5097C6.56774 24.5097 5.83226 22.6323 4.77419 22.1484C4.77419 22.1484 3.29677 21.1355 4.87742 21.1548C4.87742 21.1548 6.48387 21.2839 7.36774 22.8194C8.78064 25.3097 11.1484 24.5935 12.071 24.1677C12.2194 23.1355 12.6387 22.4194 13.1032 21.9935C9.49677 21.5935 5.85806 21.071 5.85806 14.8645C5.85806 13.0903 6.34839 12.2 7.38065 11.0645C7.2129 10.6452 6.66452 8.91613 7.54839 6.68387C8.89677 6.26452 12 8.42581 12 8.42581C13.2903 8.06452 14.6774 7.87742 16.0516 7.87742C17.4258 7.87742 18.8129 8.06452 20.1032 8.42581C20.1032 8.42581 23.2065 6.25806 24.5548 6.68387C25.4387 8.92258 24.8903 10.6452 24.7226 11.0645C25.7548 12.2065 26.3871 13.0968 26.3871 14.8645C26.3871 21.0903 22.5871 21.5871 18.9806 21.9935C19.5742 22.5032 20.0774 23.471 20.0774 24.9871C20.0774 27.1613 20.0581 29.8516 20.0581 30.3806C20.0581 30.8 20.3548 31.3097 21.1742 31.1613C27.6258 29.0194 32 22.8968 32 15.7419C32 6.79355 24.7419 0 15.7935 0ZM6.27097 22.2516C6.1871 22.3161 6.20645 22.4645 6.31613 22.5871C6.41935 22.6903 6.56774 22.7355 6.65161 22.6516C6.73548 22.5871 6.71613 22.4387 6.60645 22.3161C6.50323 22.2129 6.35484 22.1677 6.27097 22.2516ZM5.57419 21.729C5.52903 21.8129 5.59355 21.9161 5.72258 21.9806C5.82581 22.0452 5.95484 22.0258 6 21.9355C6.04516 21.8516 5.98064 21.7484 5.85161 21.6839C5.72258 21.6452 5.61935 21.6645 5.57419 21.729ZM7.66452 24.0258C7.56129 24.1097 7.6 24.3032 7.74839 24.4258C7.89677 24.5742 8.08387 24.5935 8.16774 24.4903C8.25161 24.4065 8.2129 24.2129 8.08387 24.0903C7.94194 23.9419 7.74839 23.9226 7.66452 24.0258ZM6.92903 23.0774C6.82581 23.1419 6.82581 23.3097 6.92903 23.4581C7.03226 23.6065 7.20645 23.671 7.29032 23.6065C7.39355 23.5226 7.39355 23.3548 7.29032 23.2065C7.2 23.0581 7.03226 22.9935 6.92903 23.0774Z" fill="#DDA15E"/>
</svg>
