<svg width="48" height="49" viewBox="0 0 48 49" fill="none" xmlns="http://www.w3.org/2000/svg">
<g clip-path="url(#clip0_79_19)">
<g filter="url(#filter0_f_79_19)">
<path d="M14.9389 37.928L15.5511 38.2907C18.1227 39.8168 21.0712 40.6242 24.078 40.6255H24.0843C33.3183 40.6255 40.8332 33.1123 40.8371 23.8778C40.8387 19.4028 39.0978 15.1947 35.9348 12.0292C34.3834 10.4681 32.5378 9.23022 30.5048 8.38719C28.4718 7.54415 26.2918 7.11274 24.0909 7.11791C14.8498 7.11791 7.33463 14.6304 7.33134 23.8643C7.32679 27.0175 8.21472 30.1075 9.89248 32.7772L10.2911 33.4106L8.59835 39.5903L14.9389 37.928ZM3.75879 44.3778L6.61853 33.9366C4.85485 30.8809 3.92699 27.4144 3.92809 23.863C3.93275 12.7527 12.9741 3.71411 24.0846 3.71411C29.4762 3.71685 34.5368 5.81502 38.3428 9.62371C42.1487 13.4324 44.2428 18.495 44.2409 23.8791C44.2359 34.9885 35.1932 44.0288 24.0843 44.0288H24.0756C20.7024 44.0274 17.388 43.1812 14.4438 41.5759L3.75879 44.3778Z" fill="#B3B3B3" fill-opacity="0.25"/>
</g>
<path d="M3.55225 44.1708L6.41199 33.7295C4.64527 30.6665 3.71728 27.1919 3.72155 23.6559C3.7262 12.5457 12.7676 3.50708 23.8781 3.50708C29.2696 3.50982 34.3303 5.60798 38.1362 9.41668C41.9422 13.2254 44.0362 18.2879 44.0343 23.6721C44.0294 34.7815 34.9866 43.8218 23.8778 43.8218H23.869C20.4959 43.8204 17.1814 42.9742 14.2373 41.3688L3.55225 44.1708Z" fill="white"/>
<path d="M23.8836 6.91094C14.6425 6.91094 7.12733 14.4234 7.12404 23.6574C7.11949 26.8105 8.00742 29.9005 9.68518 32.5702L10.0838 33.2039L8.39105 39.3836L14.7318 37.721L15.3441 38.0837C17.9157 39.6099 20.8642 40.4169 23.871 40.4186H23.8773C33.1113 40.4186 40.6265 32.9053 40.63 23.6708C40.637 21.4698 40.2073 19.2892 39.3658 17.2554C38.5243 15.2216 37.2878 13.3749 35.7277 11.8223C34.1763 10.2611 32.3307 9.02319 30.2976 8.18016C28.2646 7.33713 26.0845 6.90573 23.8836 6.91094Z" fill="url(#paint0_linear_79_19)"/>
<path fill-rule="evenodd" clip-rule="evenodd" d="M18.8397 15.2324C18.4622 14.3939 18.065 14.3769 17.7064 14.3624L16.741 14.3506C16.4051 14.3506 15.8594 14.4766 15.3981 14.9807C14.9368 15.4847 13.6353 16.703 13.6353 19.1808C13.6353 21.6587 15.44 24.053 15.6915 24.3894C15.943 24.7258 19.1756 29.9727 24.2948 31.9914C28.549 33.6691 29.4146 33.3354 30.3384 33.2516C31.2621 33.1678 33.3181 32.0334 33.7375 30.8573C34.1569 29.6812 34.1572 28.6737 34.0315 28.463C33.9057 28.2523 33.5699 28.1271 33.0658 27.8751C32.5617 27.6231 30.0861 26.4048 29.6245 26.2366C29.1629 26.0684 28.8273 25.9849 28.4912 26.4889C28.155 26.993 27.191 28.1269 26.8971 28.463C26.6031 28.7991 26.3097 28.8413 25.8056 28.5896C25.3016 28.3378 23.6798 27.8058 21.7556 26.0901C20.2585 24.7551 19.2479 23.1065 18.9537 22.6027C18.6595 22.0989 18.9224 21.8261 19.175 21.5751C19.401 21.3494 19.6785 20.987 19.9308 20.693C20.1831 20.3991 20.2662 20.189 20.4338 19.8534C20.6015 19.5178 20.5179 19.223 20.3919 18.9713C20.2659 18.7195 19.2873 16.2285 18.8397 15.2324Z" fill="white"/>
</g>
<defs>
<filter id="filter0_f_79_19" x="-3.30321" y="-3.34789" width="54.6059" height="54.7876" filterUnits="userSpaceOnUse" color-interpolation-filters="sRGB">
<feFlood flood-opacity="0" result="BackgroundImageFix"/>
<feBlend mode="normal" in="SourceGraphic" in2="BackgroundImageFix" result="shape"/>
<feGaussianBlur stdDeviation="3.531" result="effect1_foregroundBlur_79_19"/>
</filter>
<linearGradient id="paint0_linear_79_19" x1="23.536" y1="8.92171" x2="23.7058" y2="37.5561" gradientUnits="userSpaceOnUse">
<stop stop-color="#57D163"/>
<stop offset="1" stop-color="#23B33A"/>
</linearGradient>
<clipPath id="clip0_79_19">
<rect width="48" height="48.092" fill="white"/>
</clipPath>
</defs>
</svg>
