<svg width="22" height="19" viewBox="0 0 22 19" fill="none" xmlns="http://www.w3.org/2000/svg">
<path d="M20.675 6.66094C20.1479 5.46536 19.3838 4.37915 18.425 3.4625C17.4685 2.54364 16.3351 1.81136 15.0875 1.30625C13.7914 0.780664 12.418 0.515625 11 0.515625C9.58203 0.515625 8.20859 0.780664 6.9125 1.30625C5.66494 1.81136 4.5315 2.54364 3.575 3.4625C2.61619 4.37915 1.85207 5.46536 1.325 6.66094C0.776562 7.90303 0.5 9.21924 0.5 10.5781C0.5 13.5587 1.86641 16.3663 4.24766 18.2845L4.2875 18.3159C4.42344 18.4237 4.59453 18.4844 4.77031 18.4844H17.232C17.4078 18.4844 17.5789 18.4237 17.7148 18.3159L17.7547 18.2845C20.1336 16.3663 21.5 13.5587 21.5 10.5781C21.5 9.21924 21.2211 7.90303 20.675 6.66094ZM16.8453 16.7773H5.15469C4.24905 15.9948 3.52524 15.0385 3.03021 13.9705C2.53518 12.9025 2.28001 11.7467 2.28125 10.5781C2.28125 8.34551 3.18828 6.24766 4.83594 4.6709C6.48359 3.09189 8.67266 2.22266 11 2.22266C13.3297 2.22266 15.5188 3.09189 17.1641 4.6709C18.8117 6.2499 19.7188 8.34775 19.7188 10.5781C19.7188 12.95 18.6758 15.1938 16.8453 16.7773ZM13.6133 7.46729C13.578 7.43384 13.5305 7.41509 13.4809 7.41509C13.4313 7.41509 13.3837 7.43384 13.3484 7.46729L11.368 9.36523C10.9297 9.25293 10.4445 9.36074 10.1 9.69092C9.97797 9.80764 9.88116 9.94628 9.8151 10.0989C9.74904 10.2515 9.71504 10.4151 9.71504 10.5804C9.71504 10.7456 9.74904 10.9092 9.8151 11.0618C9.88116 11.2145 9.97797 11.3531 10.1 11.4698C10.2218 11.5868 10.3665 11.6795 10.5257 11.7429C10.685 11.8062 10.8557 11.8387 11.0281 11.8387C11.2005 11.8387 11.3713 11.8062 11.5305 11.7429C11.6898 11.6795 11.8344 11.5868 11.9562 11.4698C12.1195 11.3139 12.2369 11.1194 12.2965 10.906C12.3562 10.6927 12.3561 10.468 12.2961 10.2547L14.2766 8.35674C14.3492 8.28711 14.3492 8.17256 14.2766 8.10293L13.6133 7.46729V7.46729ZM10.4844 5.1875H11.5156C11.6188 5.1875 11.7031 5.10664 11.7031 5.00781V3.21094C11.7031 3.11211 11.6188 3.03125 11.5156 3.03125H10.4844C10.3812 3.03125 10.2969 3.11211 10.2969 3.21094V5.00781C10.2969 5.10664 10.3812 5.1875 10.4844 5.1875ZM16.5781 10.084V11.0723C16.5781 11.1711 16.6625 11.252 16.7656 11.252H18.6406C18.7438 11.252 18.8281 11.1711 18.8281 11.0723V10.084C18.8281 9.98516 18.7438 9.9043 18.6406 9.9043H16.7656C16.6625 9.9043 16.5781 9.98516 16.5781 10.084ZM16.8758 5.65469L16.1469 4.95615C16.1116 4.92271 16.064 4.90395 16.0145 4.90395C15.9649 4.90395 15.9173 4.92271 15.882 4.95615L14.5555 6.22744C14.5206 6.26121 14.501 6.30682 14.501 6.35435C14.501 6.40187 14.5206 6.44748 14.5555 6.48125L15.2844 7.17979C15.357 7.24941 15.4766 7.24941 15.5492 7.17979L16.8758 5.9085C16.9484 5.83887 16.9484 5.72432 16.8758 5.65469ZM6.12734 4.95615C6.0921 4.92271 6.04452 4.90395 5.99492 4.90395C5.94533 4.90395 5.89774 4.92271 5.8625 4.95615L5.13359 5.65469C5.0987 5.68846 5.07913 5.73407 5.07913 5.78159C5.07913 5.82912 5.0987 5.87472 5.13359 5.9085L6.46016 7.17979C6.53281 7.24941 6.65234 7.24941 6.725 7.17979L7.45391 6.48125C7.52656 6.41162 7.52656 6.29707 7.45391 6.22744L6.12734 4.95615ZM5.14062 9.9043H3.26562C3.1625 9.9043 3.07812 9.98516 3.07812 10.084V11.0723C3.07812 11.1711 3.1625 11.252 3.26562 11.252H5.14062C5.24375 11.252 5.32812 11.1711 5.32812 11.0723V10.084C5.32812 9.98516 5.24375 9.9043 5.14062 9.9043Z" fill="#F8F8F8"/>
</svg>
