<svg width="19" height="21" viewBox="0 0 19 21" fill="none" xmlns="http://www.w3.org/2000/svg">
<path d="M13.3333 15.2916V12.4166H6.625V8.58329H13.3333V5.70829L18.125 10.5L13.3333 15.2916ZM11.4167 0.916626C11.925 0.916626 12.4125 1.11856 12.772 1.478C13.1314 1.83745 13.3333 2.32496 13.3333 2.83329V4.74996H11.4167V2.83329H2.79167V18.1666H11.4167V16.25H13.3333V18.1666C13.3333 18.675 13.1314 19.1625 12.772 19.5219C12.4125 19.8814 11.925 20.0833 11.4167 20.0833H2.79167C2.28334 20.0833 1.79582 19.8814 1.43638 19.5219C1.07693 19.1625 0.875 18.675 0.875 18.1666V2.83329C0.875 2.32496 1.07693 1.83745 1.43638 1.478C1.79582 1.11856 2.28334 0.916626 2.79167 0.916626H11.4167Z" fill="#F8F8F8"/>
</svg>
