<svg width="24" height="24" viewBox="0 0 24 24" fill="none" xmlns="http://www.w3.org/2000/svg">
<path d="M21.5533 4.00019C21.4625 3.99082 21.3709 3.99082 21.28 4.00019H2.61334C2.49371 4.00203 2.37486 4.01997 2.26001 4.05352L11.8933 13.6469L21.5533 4.00019Z" fill="white"/>
<path d="M22.54 4.92676L12.8333 14.5934C12.5835 14.8418 12.2455 14.9811 11.8933 14.9811C11.541 14.9811 11.2031 14.8418 10.9533 14.5934L1.33329 5.00009C1.30371 5.10878 1.28803 5.22079 1.28662 5.33342V18.6668C1.28662 19.0204 1.4271 19.3595 1.67715 19.6096C1.92719 19.8596 2.26633 20.0001 2.61995 20.0001H21.2866C21.6402 20.0001 21.9794 19.8596 22.2294 19.6096C22.4795 19.3595 22.62 19.0204 22.62 18.6668V5.33342C22.6146 5.19453 22.5877 5.05731 22.54 4.92676ZM3.53329 18.6668H2.60662V17.7134L7.45329 12.9068L8.39329 13.8468L3.53329 18.6668ZM21.2733 18.6668H20.34L15.48 13.8468L16.42 12.9068L21.2666 17.7134L21.2733 18.6668Z" fill="white"/>
</svg>
