<svg width="20" height="20" viewBox="0 0 20 20" fill="none" xmlns="http://www.w3.org/2000/svg">
<path d="M9.99997 9.44447C10.7691 9.44447 11.521 9.21639 12.1605 8.78907C12.8 8.36175 13.2985 7.75439 13.5928 7.04379C13.8872 6.33319 13.9642 5.55126 13.8141 4.79689C13.6641 4.04252 13.2937 3.34959 12.7498 2.80572C12.206 2.26185 11.513 1.89147 10.7587 1.74141C10.0043 1.59136 9.22236 1.66837 8.51176 1.96271C7.80116 2.25705 7.1938 2.7555 6.76648 3.39503C6.33916 4.03455 6.11108 4.78643 6.11108 5.55558C6.11108 6.58698 6.52081 7.57613 7.25011 8.30544C7.97942 9.03475 8.96858 9.44447 9.99997 9.44447ZM9.99997 2.7778C10.5494 2.7778 11.0864 2.94071 11.5432 3.24594C12 3.55117 12.3561 3.985 12.5663 4.49257C12.7765 5.00014 12.8316 5.55866 12.7244 6.0975C12.6172 6.63633 12.3526 7.13128 11.9642 7.51976C11.5757 7.90824 11.0807 8.1728 10.5419 8.27998C10.0031 8.38716 9.44454 8.33215 8.93696 8.12191C8.42939 7.91167 7.99556 7.55563 7.69034 7.09883C7.38511 6.64202 7.2222 6.10497 7.2222 5.55558C7.2222 4.81887 7.51485 4.11233 8.03579 3.59139C8.55672 3.07046 9.26326 2.7778 9.99997 2.7778Z" fill="black"/>
<path d="M16.9278 13.5389C16.0369 12.5972 14.9633 11.8472 13.7726 11.3346C12.5819 10.8219 11.2992 10.5576 10.0028 10.5576C8.70649 10.5576 7.42377 10.8219 6.23309 11.3346C5.0424 11.8472 3.96877 12.5972 3.07783 13.5389C2.88467 13.7452 2.77739 14.0174 2.77783 14.3V17.2222C2.77783 17.5169 2.8949 17.7995 3.10327 18.0079C3.31164 18.2163 3.59426 18.3333 3.88894 18.3333H16.1112C16.4059 18.3333 16.6885 18.2163 16.8968 18.0079C17.1052 17.7995 17.2223 17.5169 17.2223 17.2222V14.3C17.2242 14.0181 17.119 13.7461 16.9278 13.5389ZM16.1112 17.2222H3.88894V14.2944C4.67629 13.4654 5.62411 12.8052 6.6747 12.354C7.72529 11.9029 8.8567 11.6703 10.0001 11.6703C11.1434 11.6703 12.2748 11.9029 13.3254 12.354C14.376 12.8052 15.3238 13.4654 16.1112 14.2944V17.2222Z" fill="black"/>
</svg>
