<svg width="30" height="30" viewBox="0 0 30 30" fill="none" xmlns="http://www.w3.org/2000/svg">
<path d="M13.075 22.5C12.6825 22.4977 12.2948 22.4125 11.9375 22.25C11.551 22.0796 11.2218 21.8017 10.989 21.4492C10.7563 21.0968 10.6299 20.6848 10.625 20.2625V9.7375C10.6299 9.31518 10.7563 8.9032 10.989 8.55077C11.2218 8.19834 11.551 7.92035 11.9375 7.75C12.3822 7.53996 12.8769 7.45906 13.3653 7.51652C13.8538 7.57398 14.3162 7.76749 14.7 8.075L21.075 13.3375C21.325 13.5365 21.5269 13.7894 21.6657 14.0772C21.8044 14.365 21.8765 14.6805 21.8765 15C21.8765 15.3195 21.8044 15.635 21.6657 15.9228C21.5269 16.2106 21.325 16.4635 21.075 16.6625L14.7 21.925C14.2405 22.2977 13.6666 22.5007 13.075 22.5Z" fill="#054F48"/>
</svg>
