<svg width="20" height="20" viewBox="0 0 20 20" fill="none" xmlns="http://www.w3.org/2000/svg">
<path d="M8.71659 15C8.45489 14.9985 8.19648 14.9417 7.95825 14.8333C7.70061 14.7198 7.4811 14.5344 7.32594 14.2995C7.17078 14.0645 7.08653 13.7899 7.08325 13.5083V6.49167C7.08653 6.21012 7.17078 5.93547 7.32594 5.70051C7.4811 5.46556 7.70061 5.28023 7.95825 5.16667C8.2547 5.02664 8.58453 4.97271 8.91014 5.01101C9.23576 5.04932 9.54406 5.17833 9.79992 5.38333L14.0499 8.89167C14.2166 9.02435 14.3512 9.1929 14.4437 9.3848C14.5362 9.57669 14.5842 9.78697 14.5842 10C14.5842 10.213 14.5362 10.4233 14.4437 10.6152C14.3512 10.8071 14.2166 10.9757 14.0499 11.1083L9.79992 14.6167C9.49357 14.8651 9.11101 15.0005 8.71659 15Z" fill="#6C757D"/>
</svg>
